<?xml version="1.0" encoding="UTF-8" standalone="no"?>
<!DOCTYPE svg PUBLIC "-//W3C//DTD SVG 1.1//EN"
 "http://www.w3.org/Graphics/SVG/1.1/DTD/svg11.dtd">
<!-- Generated by graphviz version 8.0.5 (20230430.1635)
 -->
<!-- Pages: 1 -->
<svg width="1193pt" height="521pt"
 viewBox="0.00 0.00 1193.25 521.00" xmlns="http://www.w3.org/2000/svg" xmlns:xlink="http://www.w3.org/1999/xlink">
<g id="graph0" class="graph" transform="scale(1 1) rotate(0) translate(4 517)">
<polygon fill="white" stroke="none" points="-4,4 -4,-517 1189.25,-517 1189.25,4 -4,4"/>
<g id="clust1" class="cluster">
<title>cluster_class</title>
<polygon fill="none" stroke="grey" stroke-dasharray="5,2" points="8,-28 8,-505 345,-505 345,-28 8,-28"/>
<text text-anchor="middle" x="176.5" y="-487.7" font-family="Arial" font-size="14.00">CLASS</text>
</g>
<g id="clust3" class="cluster">
<title>cluster_nodes</title>
<polygon fill="none" stroke="grey" stroke-dasharray="5,2" points="515,-8 515,-354 1177.25,-354 1177.25,-8 515,-8"/>
<text text-anchor="middle" x="846.12" y="-336.7" font-family="Arial" font-size="14.00">NODES</text>
</g>
<!-- classes -->
<g id="node1" class="node">
<title>classes</title>
<polygon fill="none" stroke="black" points="16,-248.38 16,-319.62 70,-319.62 70,-248.38 16,-248.38"/>
<text text-anchor="middle" x="43" y="-302.32" font-family="Arial" font-size="14.00">:ADD</text>
<polyline fill="none" stroke="black" points="16,-295.88 70,-295.88"/>
<text text-anchor="middle" x="43" y="-278.57" font-family="Arial" font-size="14.00">:SUB</text>
<polyline fill="none" stroke="black" points="16,-272.12 70,-272.12"/>
<text text-anchor="middle" x="43" y="-254.82" font-family="Arial" font-size="14.00">...</text>
</g>
<!-- class_name -->
<g id="node2" class="node">
<title>class_name</title>
<polygon fill="none" stroke="black" points="153.12,-382 153.12,-418 290.88,-418 290.88,-382 153.12,-382"/>
<text text-anchor="middle" x="197.88" y="-394.7" font-family="Arial" font-size="14.00">:class&#45;name</text>
<polyline fill="none" stroke="black" points="242.62,-382.25 242.62,-418"/>
<text text-anchor="middle" x="266.75" y="-394.7" font-family="Arial" font-size="14.00">:ADD</text>
</g>
<!-- classes&#45;&gt;class_name -->
<g id="edge1" class="edge">
<title>classes&#45;&gt;class_name</title>
<path fill="none" stroke="black" d="M43.25,-319.43C43.25,-353.55 43.25,-400 43.25,-400 43.25,-400 142.15,-400 142.15,-400"/>
<polygon fill="black" stroke="black" points="142.15,-403.5 152.15,-400 142.15,-396.5 142.15,-403.5"/>
</g>
<!-- parameters -->
<g id="node3" class="node">
<title>parameters</title>
<polygon fill="none" stroke="black" points="107,-260.25 107,-307.75 337,-307.75 337,-260.25 107,-260.25"/>
<text text-anchor="middle" x="151.38" y="-278.57" font-family="Arial" font-size="14.00">:parameters</text>
<polyline fill="none" stroke="black" points="195.75,-260.25 195.75,-307.75"/>
<text text-anchor="middle" x="266.38" y="-290.45" font-family="Arial" font-size="14.00">:param&#45;a a&#45;field&#45;type</text>
<polyline fill="none" stroke="black" points="195.75,-284 337,-284"/>
<text text-anchor="middle" x="266.38" y="-266.7" font-family="Arial" font-size="14.00">:param&#45;b b&#45;field&#45;type</text>
</g>
<!-- classes&#45;&gt;parameters -->
<g id="edge2" class="edge">
<title>classes&#45;&gt;parameters</title>
<path fill="none" stroke="black" d="M69.8,-284C69.8,-284 96.31,-284 96.31,-284"/>
<polygon fill="black" stroke="black" points="96.31,-287.5 106.31,-284 96.31,-280.5 96.31,-287.5"/>
</g>
<!-- in -->
<g id="node4" class="node">
<title>in</title>
<polygon fill="none" stroke="black" points="150.5,-193.25 150.5,-240.75 293.5,-240.75 293.5,-193.25 150.5,-193.25"/>
<text text-anchor="middle" x="165.62" y="-211.57" font-family="Arial" font-size="14.00">:in</text>
<polyline fill="none" stroke="black" points="180.75,-193.25 180.75,-240.75"/>
<text text-anchor="middle" x="237.12" y="-223.45" font-family="Arial" font-size="14.00">:in&#45;a a&#45;field&#45;type</text>
<polyline fill="none" stroke="black" points="180.75,-217 293.5,-217"/>
<text text-anchor="middle" x="237.12" y="-199.7" font-family="Arial" font-size="14.00">:in&#45;b b&#45;field&#45;type</text>
</g>
<!-- classes&#45;&gt;in -->
<g id="edge3" class="edge">
<title>classes&#45;&gt;in</title>
<path fill="none" stroke="black" d="M52.25,-248.54C52.25,-232.47 52.25,-217 52.25,-217 52.25,-217 139.5,-217 139.5,-217"/>
<polygon fill="black" stroke="black" points="139.5,-220.5 149.5,-217 139.5,-213.5 139.5,-220.5"/>
</g>
<!-- out -->
<g id="node5" class="node">
<title>out</title>
<polygon fill="none" stroke="black" points="122.75,-126.25 122.75,-173.75 321.25,-173.75 321.25,-126.25 122.75,-126.25"/>
<text text-anchor="middle" x="142" y="-144.57" font-family="Arial" font-size="14.00">:out</text>
<polyline fill="none" stroke="black" points="161.25,-126.25 161.25,-173.75"/>
<text text-anchor="middle" x="241.25" y="-156.45" font-family="Arial" font-size="14.00">:out&#45;a a&#45;default&#45;decoder</text>
<polyline fill="none" stroke="black" points="161.25,-150 321.25,-150"/>
<text text-anchor="middle" x="241.25" y="-132.7" font-family="Arial" font-size="14.00">:out&#45;b b&#45;default&#45;decoder</text>
</g>
<!-- classes&#45;&gt;out -->
<g id="edge4" class="edge">
<title>classes&#45;&gt;out</title>
<path fill="none" stroke="black" d="M69.76,-253.81C97.62,-253.81 137.25,-253.81 137.25,-253.81 137.25,-253.81 137.25,-184.56 137.25,-184.56"/>
<polygon fill="black" stroke="black" points="140.75,-184.56 137.25,-174.56 133.75,-184.56 140.75,-184.56"/>
</g>
<!-- renderer -->
<g id="node6" class="node">
<title>renderer</title>
<polygon fill="none" stroke="black" points="143.38,-327 143.38,-363 300.62,-363 300.62,-327 143.38,-327"/>
<text text-anchor="middle" x="178.75" y="-339.7" font-family="Arial" font-size="14.00">:renderer</text>
<polyline fill="none" stroke="black" points="214.12,-327.25 214.12,-363"/>
<text text-anchor="middle" x="257.38" y="-339.7" font-family="Arial" font-size="14.00">fn&#45;to&#45;render</text>
</g>
<!-- classes&#45;&gt;renderer -->
<g id="edge5" class="edge">
<title>classes&#45;&gt;renderer</title>
<path fill="none" stroke="black" d="M57.25,-319.55C57.25,-335.66 57.25,-351.17 57.25,-351.17 57.25,-351.17 132.49,-351.17 132.49,-351.17"/>
<polygon fill="black" stroke="black" points="132.49,-354.67 142.49,-351.17 132.49,-347.67 132.49,-354.67"/>
</g>
<!-- rendered -->
<g id="node7" class="node">
<title>rendered</title>
<polygon fill="none" stroke="black" points="152.75,-36.38 152.75,-107.62 291.25,-107.62 291.25,-36.38 152.75,-36.38"/>
<text text-anchor="middle" x="189.62" y="-66.58" font-family="Arial" font-size="14.00">:rendered</text>
<polyline fill="none" stroke="black" points="226.5,-36.38 226.5,-107.62"/>
<text text-anchor="middle" x="258.88" y="-90.33" font-family="Arial" font-size="14.00">:in&#45;pos</text>
<polyline fill="none" stroke="black" points="226.5,-83.88 291.25,-83.88"/>
<text text-anchor="middle" x="258.88" y="-66.58" font-family="Arial" font-size="14.00">:out&#45;pos</text>
<polyline fill="none" stroke="black" points="226.5,-60.12 291.25,-60.12"/>
<text text-anchor="middle" x="258.88" y="-42.83" font-family="Arial" font-size="14.00">:body</text>
</g>
<!-- classes&#45;&gt;rendered -->
<g id="edge6" class="edge">
<title>classes&#45;&gt;rendered</title>
<path fill="none" stroke="black" d="M34.25,-248.5C34.25,-185.33 34.25,-59.96 34.25,-59.96 34.25,-59.96 141.89,-59.96 141.89,-59.96"/>
<polygon fill="black" stroke="black" points="141.89,-63.46 151.89,-59.96 141.89,-56.46 141.89,-63.46"/>
</g>
<!-- logic -->
<g id="node8" class="node">
<title>logic</title>
<polygon fill="none" stroke="black" points="151.25,-437 151.25,-473 292.75,-473 292.75,-437 151.25,-437"/>
<text text-anchor="middle" x="175" y="-449.7" font-family="Arial" font-size="14.00">:logic</text>
<polyline fill="none" stroke="black" points="198.75,-437.25 198.75,-473"/>
<text text-anchor="middle" x="245.75" y="-449.7" font-family="Arial" font-size="14.00">logic&#45;of&#45;node</text>
</g>
<!-- classes&#45;&gt;logic -->
<g id="edge7" class="edge">
<title>classes&#45;&gt;logic</title>
<path fill="none" stroke="black" d="M30.25,-319.43C30.25,-369.52 30.25,-455 30.25,-455 30.25,-455 140.42,-455 140.42,-455"/>
<polygon fill="black" stroke="black" points="140.42,-458.5 150.42,-455 140.42,-451.5 140.42,-458.5"/>
</g>
<!-- instant -->
<g id="node15" class="node">
<title>instant</title>
<ellipse fill="black" stroke="black" cx="701.88" cy="-320" rx="1.8" ry="1.8"/>
</g>
<!-- class_name&#45;&gt;instant -->
<g id="edge15" class="edge">
<title>class_name&#45;&gt;instant</title>
<path fill="none" stroke="orange" d="M301.81,-400C301.81,-400 702.25,-400 702.25,-400 702.25,-400 702.25,-334.3 702.25,-321.98"/>
<polygon fill="orange" stroke="orange" points="301.81,-396.5 291.81,-400 301.81,-403.5 301.81,-396.5"/>
<text text-anchor="middle" x="481.79" y="-386.7" font-family="Arial" font-size="14.00">refer by class name</text>
</g>
<!-- instant_parameters -->
<g id="node13" class="node">
<title>instant_parameters</title>
<polygon fill="none" stroke="black" points="561.75,-264 561.75,-300 842,-300 842,-264 561.75,-264"/>
<text text-anchor="middle" x="606.12" y="-276.7" font-family="Arial" font-size="14.00">:parameters</text>
<polyline fill="none" stroke="black" points="650.5,-264.25 650.5,-300"/>
<text text-anchor="middle" x="746.25" y="-276.7" font-family="Arial" font-size="14.00">parameters decoded by input</text>
</g>
<!-- parameters&#45;&gt;instant_parameters -->
<g id="edge12" class="edge">
<title>parameters&#45;&gt;instant_parameters</title>
<path fill="none" stroke="orange" d="M347.94,-282C347.94,-282 561.76,-282 561.76,-282"/>
<polygon fill="orange" stroke="orange" points="347.94,-278.5 337.94,-282 347.94,-285.5 347.94,-278.5"/>
<text text-anchor="middle" x="430" y="-301.2" font-family="Arial" font-size="14.00">map parameters value</text>
<text text-anchor="middle" x="430" y="-285.45" font-family="Arial" font-size="14.00"> with encoder</text>
</g>
<!-- instant_in -->
<g id="node10" class="node">
<title>instant_in</title>
<polygon fill="none" stroke="black" points="633.38,-205.25 633.38,-244.75 770.38,-244.75 770.38,-205.25 633.38,-205.25"/>
<text text-anchor="middle" x="648.5" y="-219.57" font-family="Arial" font-size="14.00">:in</text>
<polyline fill="none" stroke="black" points="663.62,-205.25 663.62,-244.75"/>
<text text-anchor="middle" x="717" y="-227.45" font-family="Arial" font-size="14.00">store :in</text>
<text text-anchor="middle" x="717" y="-211.7" font-family="Arial" font-size="14.00">key&#45;value pairs</text>
</g>
<!-- in&#45;&gt;instant_in -->
<g id="edge10" class="edge">
<title>in&#45;&gt;instant_in</title>
<path fill="none" stroke="orange" d="M304.32,-223C304.32,-223 633.66,-223 633.66,-223"/>
<polygon fill="orange" stroke="orange" points="304.32,-219.5 294.32,-223 304.32,-226.5 304.32,-219.5"/>
<text text-anchor="middle" x="430" y="-239.2" font-family="Arial" font-size="14.00">map input type</text>
<text text-anchor="middle" x="430" y="-223.45" font-family="Arial" font-size="14.00">with encoder</text>
</g>
<!-- instant_out -->
<g id="node9" class="node">
<title>instant_out</title>
<polygon fill="none" stroke="black" points="629.25,-146.25 629.25,-185.75 774.5,-185.75 774.5,-146.25 629.25,-146.25"/>
<text text-anchor="middle" x="648.5" y="-160.57" font-family="Arial" font-size="14.00">:out</text>
<polyline fill="none" stroke="black" points="667.75,-146.25 667.75,-185.75"/>
<text text-anchor="middle" x="721.12" y="-168.45" font-family="Arial" font-size="14.00">store :out</text>
<text text-anchor="middle" x="721.12" y="-152.7" font-family="Arial" font-size="14.00">key&#45;value pairs</text>
</g>
<!-- out&#45;&gt;instant_out -->
<g id="edge9" class="edge">
<title>out&#45;&gt;instant_out</title>
<path fill="none" stroke="orange" d="M332.14,-160C332.14,-160 629.43,-160 629.43,-160"/>
<polygon fill="orange" stroke="orange" points="332.14,-156.5 322.14,-160 332.14,-163.5 332.14,-156.5"/>
<text text-anchor="middle" x="430" y="-174.2" font-family="Arial" font-size="14.00">map calculated value</text>
<text text-anchor="middle" x="430" y="-158.45" font-family="Arial" font-size="14.00"> with decoder</text>
</g>
<!-- renderer&#45;&gt;rendered -->
<g id="edge8" class="edge">
<title>renderer&#45;&gt;rendered</title>
<path fill="none" stroke="orange" d="M143.63,-338.83C114.89,-338.83 89.25,-338.83 89.25,-338.83 89.25,-338.83 89.25,-84.04 89.25,-84.04 89.25,-84.04 141.9,-84.04 141.9,-84.04"/>
<polygon fill="orange" stroke="orange" points="141.9,-87.54 151.9,-84.04 141.9,-80.54 141.9,-87.54"/>
<text text-anchor="middle" x="62.25" y="-199" font-family="Arial" font-size="14.00">to render</text>
</g>
<!-- instant_rendered -->
<g id="node12" class="node">
<title>instant_rendered</title>
<polygon fill="none" stroke="black" points="523,-16.62 523,-127.38 880.75,-127.38 880.75,-16.62 523,-16.62"/>
<text text-anchor="middle" x="701.88" y="-110.08" font-family="Arial" font-size="14.00">:rendered</text>
<polyline fill="none" stroke="black" points="523,-103.62 880.75,-103.62"/>
<text text-anchor="middle" x="574.5" y="-86.33" font-family="Arial" font-size="14.00">:body</text>
<polyline fill="none" stroke="black" points="523,-79.88 626,-79.88"/>
<text text-anchor="middle" x="574.5" y="-62.58" font-family="Arial" font-size="14.00">rendered body</text>
<text text-anchor="middle" x="574.5" y="-46.83" font-family="Arial" font-size="14.00">in hiccups</text>
<polyline fill="none" stroke="black" points="626,-40.38 626,-103.62"/>
<text text-anchor="middle" x="687.62" y="-86.33" font-family="Arial" font-size="14.00">:in&#45;pos</text>
<polyline fill="none" stroke="black" points="626,-79.88 749.25,-79.88"/>
<text text-anchor="middle" x="687.62" y="-62.58" font-family="Arial" font-size="14.00">input&#45;port position</text>
<text text-anchor="middle" x="687.62" y="-46.83" font-family="Arial" font-size="14.00">relative to body</text>
<polyline fill="none" stroke="black" points="749.25,-40.38 749.25,-103.62"/>
<text text-anchor="middle" x="815" y="-86.33" font-family="Arial" font-size="14.00">:out&#45;pos</text>
<polyline fill="none" stroke="black" points="749.25,-79.88 880.75,-79.88"/>
<text text-anchor="middle" x="815" y="-62.58" font-family="Arial" font-size="14.00">output&#45;port position</text>
<text text-anchor="middle" x="815" y="-46.83" font-family="Arial" font-size="14.00">relative to body</text>
<polyline fill="none" stroke="black" points="523,-40.38 880.75,-40.38"/>
<text text-anchor="middle" x="701.88" y="-23.07" font-family="Arial" font-size="14.00">rendered key&#45;value pairs</text>
</g>
<!-- rendered&#45;&gt;instant_rendered -->
<g id="edge14" class="edge">
<title>rendered&#45;&gt;instant_rendered</title>
<path fill="none" stroke="orange" d="M302.01,-72C302.01,-72 523.18,-72 523.18,-72"/>
<polygon fill="orange" stroke="orange" points="302.01,-68.5 292.01,-72 302.01,-75.5 302.01,-68.5"/>
<text text-anchor="middle" x="430" y="-74.45" font-family="Arial" font-size="14.00">use default if no renderer</text>
</g>
<!-- instant_in_text_field -->
<g id="node11" class="node">
<title>instant_in_text_field</title>
<polygon fill="none" stroke="black" points="987.25,-205.25 987.25,-244.75 1153.5,-244.75 1153.5,-205.25 987.25,-205.25"/>
<text text-anchor="middle" x="1017" y="-219.57" font-family="Arial" font-size="14.00">:in&#45;field</text>
<polyline fill="none" stroke="black" points="1046.75,-205.25 1046.75,-244.75"/>
<text text-anchor="middle" x="1100.12" y="-227.45" font-family="Arial" font-size="14.00">store :in input</text>
<text text-anchor="middle" x="1100.12" y="-211.7" font-family="Arial" font-size="14.00">key&#45;value pairs</text>
</g>
<!-- instant_in&#45;&gt;instant_in_text_field -->
<g id="edge11" class="edge">
<title>instant_in&#45;&gt;instant_in_text_field</title>
<path fill="none" stroke="orange" d="M781.32,-225C781.32,-225 987.46,-225 987.46,-225"/>
<polygon fill="orange" stroke="orange" points="781.32,-221.5 771.32,-225 781.32,-228.5 781.32,-221.5"/>
<text text-anchor="middle" x="926.12" y="-243.2" font-family="Arial" font-size="14.00">input text</text>
<text text-anchor="middle" x="926.12" y="-227.45" font-family="Arial" font-size="14.00">value</text>
</g>
<!-- instant_parameters_text_field -->
<g id="node14" class="node">
<title>instant_parameters_text_field</title>
<polygon fill="none" stroke="black" points="971.5,-264 971.5,-300 1169.25,-300 1169.25,-264 971.5,-264"/>
<text text-anchor="middle" x="1030.5" y="-276.7" font-family="Arial" font-size="14.00">:parameters&#45;field</text>
<polyline fill="none" stroke="black" points="1089.5,-264.25 1089.5,-300"/>
<text text-anchor="middle" x="1129.38" y="-276.7" font-family="Arial" font-size="14.00">like in&#45;field</text>
</g>
<!-- instant_parameters&#45;&gt;instant_parameters_text_field -->
<g id="edge13" class="edge">
<title>instant_parameters&#45;&gt;instant_parameters_text_field</title>
<path fill="none" stroke="orange" d="M852.98,-282C852.98,-282 971.74,-282 971.74,-282"/>
<polygon fill="orange" stroke="orange" points="852.98,-278.5 842.98,-282 852.98,-285.5 852.98,-278.5"/>
<text text-anchor="middle" x="926.12" y="-300.2" font-family="Arial" font-size="14.00">input text</text>
<text text-anchor="middle" x="926.12" y="-284.45" font-family="Arial" font-size="14.00">value</text>
</g>
</g>
</svg>
